<svg width="377" height="98" viewBox="0 0 377 98" fill="none" xmlns="http://www.w3.org/2000/svg">
<g clip-path="url(#clip0_4_2)">
<rect width="377" height="98" fill="white"/>
<path d="M54.0714 45.76C54.0714 50.08 52.8114 53.3 50.2914 55.42C47.8114 57.54 43.9514 58.6 38.7114 58.6H18.4914C17.5314 58.6 16.8314 58.38 16.3914 57.94C15.9514 57.5 15.7314 56.8 15.7314 55.84V16.96C15.7314 16 15.9514 15.3 16.3914 14.86C16.8314 14.42 17.5314 14.2 18.4914 14.2H38.7114C43.9514 14.2 47.8114 15.26 50.2914 17.38C52.8114 19.5 54.0714 22.72 54.0714 27.04V45.76ZM38.7114 58C43.7114 58 47.4114 57 49.8114 55C52.2514 53 53.4714 49.92 53.4714 45.76V27.04C53.4714 22.88 52.2514 19.8 49.8114 17.8C47.4114 15.8 43.7114 14.8 38.7114 14.8H18.4914C17.7314 14.8 17.1714 14.98 16.8114 15.34C16.4914 15.66 16.3314 16.2 16.3314 16.96V55.84C16.3314 56.6 16.4914 57.16 16.8114 57.52C17.1714 57.84 17.7314 58 18.4914 58H38.7114ZM22.8714 52.6V20.2H37.3914C39.4314 20.2 41.0714 20.42 42.3114 20.86C43.5914 21.3 44.5714 21.9 45.2514 22.66C45.9314 23.38 46.3914 24.26 46.6314 25.3C46.8714 26.3 46.9914 27.38 46.9914 28.54V44.44C46.9914 45.6 46.8714 46.68 46.6314 47.68C46.4314 48.68 45.9914 49.54 45.3114 50.26C44.6314 50.98 43.6514 51.56 42.3714 52C41.0914 52.4 39.4314 52.6 37.3914 52.6H22.8714ZM37.3914 20.8H23.4714V52H37.3914C39.3114 52 40.8514 51.82 42.0114 51.46C43.2114 51.06 44.1314 50.54 44.7714 49.9C45.4114 49.22 45.8314 48.42 46.0314 47.5C46.2714 46.54 46.3914 45.52 46.3914 44.44V28.54C46.3914 27.46 46.2714 26.44 46.0314 25.48C45.7914 24.52 45.3514 23.7 44.7114 23.02C44.0714 22.34 43.1514 21.8 41.9514 21.4C40.7914 21 39.2714 20.8 37.3914 20.8ZM29.9514 26.26H37.0914C38.0514 26.26 38.7514 26.5 39.1914 26.98C39.6714 27.42 39.9114 28.14 39.9114 29.14V43.72C39.9114 44.72 39.6714 45.46 39.1914 45.94C38.7514 46.42 38.0514 46.66 37.0914 46.66H29.9514V26.26ZM37.0914 26.86H30.5514V46.06H37.0914C37.8514 46.06 38.4114 45.88 38.7714 45.52C39.1314 45.12 39.3114 44.52 39.3114 43.72V29.14C39.3114 28.38 39.1314 27.82 38.7714 27.46C38.4114 27.06 37.8514 26.86 37.0914 26.86ZM67.577 52.6V20.2H68.177V36.1H91.217V20.2H91.817V52.6H91.217V36.7H68.177V52.6H67.577ZM72.557 58C73.317 58 73.857 57.84 74.177 57.52C74.537 57.16 74.717 56.6 74.717 55.84V42.52H84.737V55.84C84.737 56.6 84.897 57.16 85.217 57.52C85.577 57.84 86.137 58 86.897 58H96.197C96.957 58 97.497 57.84 97.817 57.52C98.177 57.16 98.357 56.6 98.357 55.84V16.96C98.357 16.2 98.177 15.66 97.817 15.34C97.497 14.98 96.957 14.8 96.197 14.8H86.897C86.137 14.8 85.577 14.98 85.217 15.34C84.897 15.66 84.737 16.2 84.737 16.96V29.98H74.717V16.96C74.717 16.2 74.537 15.66 74.177 15.34C73.857 14.98 73.317 14.8 72.557 14.8H63.257C62.497 14.8 61.937 14.98 61.577 15.34C61.257 15.66 61.097 16.2 61.097 16.96V55.84C61.097 56.6 61.257 57.16 61.577 57.52C61.937 57.84 62.497 58 63.257 58H72.557ZM63.257 58.6C62.297 58.6 61.597 58.38 61.157 57.94C60.717 57.5 60.497 56.8 60.497 55.84V16.96C60.497 16 60.717 15.3 61.157 14.86C61.597 14.42 62.297 14.2 63.257 14.2H72.557C73.517 14.2 74.217 14.42 74.657 14.86C75.097 15.3 75.317 16 75.317 16.96V29.38H84.137V16.96C84.137 16 84.357 15.3 84.797 14.86C85.237 14.42 85.937 14.2 86.897 14.2H96.197C97.157 14.2 97.857 14.42 98.297 14.86C98.737 15.3 98.957 16 98.957 16.96V55.84C98.957 56.8 98.737 57.5 98.297 57.94C97.857 58.38 97.157 58.6 96.197 58.6H86.897C85.937 58.6 85.237 58.38 84.797 57.94C84.357 57.5 84.137 56.8 84.137 55.84V43.12H75.317V55.84C75.317 56.8 75.097 57.5 74.657 57.94C74.217 58.38 73.517 58.6 72.557 58.6H63.257ZM108.784 58.6C107.824 58.6 107.124 58.38 106.684 57.94C106.244 57.5 106.024 56.8 106.024 55.84V16.96C106.024 16 106.244 15.3 106.684 14.86C107.124 14.42 107.824 14.2 108.784 14.2H136.624C137.584 14.2 138.284 14.42 138.724 14.86C139.164 15.3 139.384 16 139.384 16.96V23.98C139.384 24.94 139.164 25.64 138.724 26.08C138.284 26.52 137.584 26.74 136.624 26.74H120.664V30.16H131.764C132.724 30.16 133.424 30.38 133.864 30.82C134.304 31.26 134.524 31.96 134.524 32.92V39.34C134.524 40.3 134.304 41 133.864 41.44C133.424 41.88 132.724 42.1 131.764 42.1H120.664V46.06H136.624C137.584 46.06 138.284 46.28 138.724 46.72C139.164 47.16 139.384 47.86 139.384 48.82V55.84C139.384 56.8 139.164 57.5 138.724 57.94C138.284 58.38 137.584 58.6 136.624 58.6H108.784ZM136.624 58C137.384 58 137.924 57.84 138.244 57.52C138.604 57.16 138.784 56.6 138.784 55.84V48.82C138.784 48.06 138.604 47.52 138.244 47.2C137.924 46.84 137.384 46.66 136.624 46.66H120.064V41.5H131.764C132.524 41.5 133.064 41.34 133.384 41.02C133.744 40.66 133.924 40.1 133.924 39.34V32.92C133.924 32.16 133.744 31.62 133.384 31.3C133.064 30.94 132.524 30.76 131.764 30.76H120.064V26.14H136.624C137.384 26.14 137.924 25.98 138.244 25.66C138.604 25.3 138.784 24.74 138.784 23.98V16.96C138.784 16.2 138.604 15.66 138.244 15.34C137.924 14.98 137.384 14.8 136.624 14.8H108.784C108.024 14.8 107.464 14.98 107.104 15.34C106.784 15.66 106.624 16.2 106.624 16.96V55.84C106.624 56.6 106.784 57.16 107.104 57.52C107.464 57.84 108.024 58 108.784 58H136.624ZM133.384 52V52.6H113.164V20.2H133.384V20.8H113.764V35.86H128.524V36.46H113.764V52H133.384ZM183.262 16.96V46.66C183.262 48.54 182.982 50.28 182.422 51.88C181.902 53.44 180.942 54.78 179.542 55.9C178.142 57.02 176.182 57.9 173.662 58.54C171.182 59.18 168.002 59.5 164.122 59.5C160.242 59.5 157.042 59.18 154.522 58.54C152.042 57.9 150.102 57.02 148.702 55.9C147.302 54.78 146.322 53.44 145.762 51.88C145.242 50.28 144.982 48.54 144.982 46.66V16.96C144.982 16 145.202 15.3 145.642 14.86C146.082 14.42 146.782 14.2 147.742 14.2H157.162C158.122 14.2 158.822 14.42 159.262 14.86C159.702 15.3 159.922 16 159.922 16.96V44.32C159.922 45.04 160.222 45.6 160.822 46C161.462 46.36 162.602 46.54 164.242 46.54C165.922 46.54 167.062 46.36 167.662 46C168.302 45.6 168.622 45.04 168.622 44.32V16.96C168.622 16 168.822 15.3 169.222 14.86C169.662 14.42 170.382 14.2 171.382 14.2H180.502C181.462 14.2 182.162 14.42 182.602 14.86C183.042 15.3 183.262 16 183.262 16.96ZM182.662 46.66V16.96C182.662 16.2 182.482 15.66 182.122 15.34C181.802 14.98 181.262 14.8 180.502 14.8H171.382C170.622 14.8 170.062 14.98 169.702 15.34C169.382 15.66 169.222 16.2 169.222 16.96V44.32C169.222 45.12 168.922 45.8 168.322 46.36C167.722 46.88 166.362 47.14 164.242 47.14C162.162 47.14 160.822 46.88 160.222 46.36C159.622 45.8 159.322 45.12 159.322 44.32V16.96C159.322 16.2 159.142 15.66 158.782 15.34C158.462 14.98 157.922 14.8 157.162 14.8H147.742C146.982 14.8 146.422 14.98 146.062 15.34C145.742 15.66 145.582 16.2 145.582 16.96V46.66C145.582 48.5 145.842 50.18 146.362 51.7C146.922 53.18 147.882 54.46 149.242 55.54C150.642 56.58 152.542 57.4 154.942 58C157.342 58.6 160.402 58.9 164.122 58.9C167.842 58.9 170.902 58.6 173.302 58C175.702 57.4 177.582 56.58 178.942 55.54C180.342 54.46 181.302 53.18 181.822 51.7C182.382 50.18 182.662 48.5 182.662 46.66ZM152.182 20.2H152.782V45.22C152.782 47.46 153.562 49.28 155.122 50.68C156.722 52.04 159.742 52.72 164.182 52.72C168.622 52.72 171.642 52.04 173.242 50.68C174.842 49.28 175.642 47.46 175.642 45.22V20.2H176.242V45.22C176.242 47.62 175.402 49.58 173.722 51.1C172.042 52.58 168.862 53.32 164.182 53.32C159.502 53.32 156.322 52.58 154.642 51.1C153.002 49.58 152.182 47.62 152.182 45.22V20.2ZM210.808 20.8H197.728V38.14H210.808C213.288 38.14 214.948 37.54 215.788 36.34C216.628 35.14 217.048 33.44 217.048 31.24V27.04C217.048 25.2 216.528 23.7 215.488 22.54C214.488 21.38 212.928 20.8 210.808 20.8ZM204.208 25.6H208.708C209.748 25.6 210.448 25.88 210.808 26.44C211.168 26.96 211.348 27.62 211.348 28.42V30.46C211.348 31.26 211.168 31.94 210.808 32.5C210.448 33.02 209.748 33.28 208.708 33.28H204.208V25.6ZM208.708 26.2H204.808V32.68H208.708C209.548 32.68 210.088 32.48 210.328 32.08C210.608 31.64 210.748 31.1 210.748 30.46V28.42C210.748 27.78 210.608 27.26 210.328 26.86C210.088 26.42 209.548 26.2 208.708 26.2ZM197.728 52.6H197.128V20.2H210.808C213.128 20.2 214.848 20.86 215.968 22.18C217.088 23.46 217.648 25.08 217.648 27.04V31.18C217.648 33.02 217.408 34.54 216.928 35.74C216.448 36.9 215.488 37.7 214.048 38.14H214.708C217.148 38.14 218.968 38.7 220.168 39.82C221.368 40.9 221.968 42.48 221.968 44.56V52.6H221.368V44.56C221.368 42.6 220.828 41.14 219.748 40.18C218.668 39.18 216.988 38.68 214.708 38.68H197.728V52.6ZM202.048 58C202.808 58 203.348 57.84 203.668 57.52C204.028 57.16 204.208 56.6 204.208 55.84V44.08H212.608C213.448 44.08 214.028 44.3 214.348 44.74C214.708 45.14 214.888 45.78 214.888 46.66V55.84C214.888 56.6 215.048 57.16 215.368 57.52C215.728 57.84 216.288 58 217.048 58H226.348C227.108 58 227.648 57.84 227.968 57.52C228.328 57.16 228.508 56.6 228.508 55.84V43.12C228.508 40.6 227.828 38.58 226.468 37.06C225.148 35.54 223.408 34.66 221.248 34.42C222.488 33.9 223.348 33.06 223.828 31.9C224.348 30.7 224.608 29.26 224.608 27.58V24.82C224.608 21.86 223.748 19.46 222.028 17.62C220.348 15.74 217.268 14.8 212.788 14.8H192.808C192.048 14.8 191.488 14.98 191.128 15.34C190.808 15.66 190.648 16.2 190.648 16.96V55.84C190.648 56.6 190.808 57.16 191.128 57.52C191.488 57.84 192.048 58 192.808 58H202.048ZM202.048 58.6H192.808C191.848 58.6 191.148 58.38 190.708 57.94C190.268 57.5 190.048 56.8 190.048 55.84V16.96C190.048 16 190.268 15.3 190.708 14.86C191.148 14.42 191.848 14.2 192.808 14.2H212.788C217.548 14.2 220.808 15.2 222.568 17.2C224.328 19.16 225.208 21.7 225.208 24.82V27.58C225.208 29.06 225.028 30.36 224.668 31.48C224.308 32.56 223.708 33.44 222.868 34.12C224.748 34.64 226.248 35.68 227.368 37.24C228.528 38.8 229.108 40.76 229.108 43.12V55.84C229.108 56.8 228.888 57.5 228.448 57.94C228.008 58.38 227.308 58.6 226.348 58.6H217.048C216.088 58.6 215.388 58.38 214.948 57.94C214.508 57.5 214.288 56.8 214.288 55.84V46.66C214.288 46.02 214.168 45.54 213.928 45.22C213.688 44.86 213.248 44.68 212.608 44.68H204.808V55.84C204.808 56.8 204.588 57.5 204.148 57.94C203.708 58.38 203.008 58.6 202.048 58.6ZM245.601 58.6C244.601 58.6 243.881 58.38 243.441 57.94C243.041 57.5 242.841 56.8 242.841 55.84V48.34L233.781 36.22C232.821 34.94 232.181 33.82 231.861 32.86C231.541 31.9 231.381 30.44 231.381 28.48V16.96C231.381 16 231.601 15.3 232.041 14.86C232.481 14.42 233.181 14.2 234.141 14.2H243.381C244.341 14.2 245.041 14.42 245.481 14.86C245.921 15.3 246.141 16 246.141 16.96V26.8C246.141 27.16 246.161 27.52 246.201 27.88C246.241 28.24 246.361 28.62 246.561 29.02L249.381 33.34C249.501 33.58 249.621 33.76 249.741 33.88C249.901 34 250.081 34.06 250.281 34.06H250.881C251.081 34.06 251.241 34 251.361 33.88C251.521 33.76 251.681 33.58 251.841 33.34L254.601 29.02C254.801 28.62 254.921 28.24 254.961 27.88C255.001 27.52 255.021 27.16 255.021 26.8V16.96C255.021 16 255.241 15.3 255.681 14.86C256.121 14.42 256.821 14.2 257.781 14.2H266.721C267.681 14.2 268.381 14.42 268.821 14.86C269.261 15.3 269.481 16 269.481 16.96V28.48C269.481 30.44 269.321 31.9 269.001 32.86C268.681 33.82 268.041 34.94 267.081 36.22L258.081 48.4V55.84C258.081 56.8 257.861 57.5 257.421 57.94C256.981 58.38 256.281 58.6 255.321 58.6H245.601ZM255.321 58C256.081 58 256.621 57.84 256.941 57.52C257.301 57.16 257.481 56.6 257.481 55.84V48.22L266.601 35.86C267.481 34.62 268.081 33.54 268.401 32.62C268.721 31.7 268.881 30.32 268.881 28.48V16.96C268.881 16.2 268.701 15.66 268.341 15.34C268.021 14.98 267.481 14.8 266.721 14.8H257.781C257.021 14.8 256.461 14.98 256.101 15.34C255.781 15.66 255.621 16.2 255.621 16.96V26.8C255.621 27.2 255.601 27.62 255.561 28.06C255.521 28.5 255.361 28.92 255.081 29.32L252.321 33.64C252.121 34 251.901 34.26 251.661 34.42C251.461 34.58 251.201 34.66 250.881 34.66H250.281C249.961 34.66 249.681 34.58 249.441 34.42C249.241 34.26 249.041 34 248.841 33.64L246.081 29.32C245.801 28.92 245.641 28.5 245.601 28.06C245.561 27.62 245.541 27.2 245.541 26.8V16.96C245.541 16.2 245.361 15.66 245.001 15.34C244.681 14.98 244.141 14.8 243.381 14.8H234.141C233.381 14.8 232.821 14.98 232.461 15.34C232.141 15.66 231.981 16.2 231.981 16.96V28.48C231.981 30.32 232.121 31.7 232.401 32.62C232.721 33.54 233.341 34.62 234.261 35.86L243.441 48.16V55.84C243.441 56.6 243.601 57.16 243.921 57.52C244.281 57.84 244.841 58 245.601 58H255.321ZM251.181 42.34H250.761V52.6H250.161V42.34H249.561C248.681 42.34 247.881 42.14 247.161 41.74C246.481 41.34 245.821 40.7 245.181 39.82L239.361 31.72C238.921 31.12 238.661 30.42 238.581 29.62C238.501 28.82 238.461 27.98 238.461 27.1V20.2H239.061V27.1C239.061 27.94 239.101 28.74 239.181 29.5C239.261 30.22 239.501 30.88 239.901 31.48L245.721 39.58C246.241 40.38 246.841 40.94 247.521 41.26C248.201 41.58 248.881 41.74 249.561 41.74H251.181C251.941 41.74 252.621 41.58 253.221 41.26C253.861 40.9 254.481 40.34 255.081 39.58L261.081 31.48C261.481 30.96 261.721 30.32 261.801 29.56C261.881 28.76 261.921 27.94 261.921 27.1V20.2H262.521V27.1C262.521 27.98 262.481 28.82 262.401 29.62C262.361 30.38 262.101 31.08 261.621 31.72L255.621 39.82C254.981 40.7 254.301 41.34 253.581 41.74C252.901 42.14 252.101 42.34 251.181 42.34ZM296.846 34.9C297.566 34.9 298.086 34.74 298.406 34.42C298.726 34.1 299.226 33.42 299.906 32.38L307.226 21.22C307.466 20.82 307.726 20.56 308.006 20.44C308.326 20.28 308.646 20.2 308.966 20.2H309.986C310.546 20.2 310.946 20.36 311.186 20.68C311.466 20.96 311.606 21.42 311.606 22.06V52.6H311.006V22.06C311.006 21.74 310.926 21.46 310.766 21.22C310.646 20.94 310.386 20.8 309.986 20.8H309.086C308.806 20.8 308.566 20.84 308.366 20.92C308.166 21 307.946 21.24 307.706 21.64L300.386 32.68C299.666 33.76 299.106 34.5 298.706 34.9C298.346 35.3 297.726 35.5 296.846 35.5C295.966 35.5 295.326 35.3 294.926 34.9C294.566 34.5 294.026 33.76 293.306 32.68L285.986 21.64C285.746 21.24 285.506 21 285.266 20.92C285.066 20.84 284.826 20.8 284.546 20.8H283.646C283.246 20.8 282.986 20.94 282.866 21.22C282.746 21.46 282.686 21.74 282.686 22.06V52.6H282.086V22.06C282.086 21.42 282.206 20.96 282.446 20.68C282.726 20.36 283.126 20.2 283.646 20.2H284.666C284.986 20.2 285.306 20.28 285.626 20.44C285.946 20.56 286.226 20.82 286.466 21.22L293.786 32.38C294.466 33.42 294.966 34.1 295.286 34.42C295.606 34.74 296.126 34.9 296.846 34.9ZM286.826 58C287.586 58 288.126 57.84 288.446 57.52C288.806 57.16 288.986 56.6 288.986 55.84V34.72L292.526 41.26C292.886 41.94 293.306 42.44 293.786 42.76C294.306 43.04 294.946 43.18 295.706 43.18H298.106C298.866 43.18 299.486 43.04 299.966 42.76C300.486 42.44 300.926 41.94 301.286 41.26L304.826 34.72V55.84C304.826 56.6 304.986 57.16 305.306 57.52C305.666 57.84 306.226 58 306.986 58H316.226C316.986 58 317.526 57.84 317.846 57.52C318.206 57.16 318.386 56.6 318.386 55.84V16.96C318.386 16.2 318.206 15.66 317.846 15.34C317.526 14.98 316.986 14.8 316.226 14.8H306.506C305.866 14.8 305.326 14.94 304.886 15.22C304.486 15.5 304.106 15.96 303.746 16.6L298.406 26.38C298.206 26.74 298.026 27 297.866 27.16C297.746 27.32 297.566 27.4 297.326 27.4H296.786C296.546 27.4 296.346 27.32 296.186 27.16C296.066 27 295.906 26.74 295.706 26.38L290.306 16.6C289.946 15.96 289.546 15.5 289.106 15.22C288.706 14.94 288.186 14.8 287.546 14.8H277.886C277.126 14.8 276.566 14.98 276.206 15.34C275.886 15.66 275.726 16.2 275.726 16.96V55.84C275.726 56.6 275.886 57.16 276.206 57.52C276.566 57.84 277.126 58 277.886 58H286.826ZM286.826 58.6H277.886C276.926 58.6 276.226 58.38 275.786 57.94C275.346 57.5 275.126 56.8 275.126 55.84V16.96C275.126 16 275.346 15.3 275.786 14.86C276.226 14.42 276.926 14.2 277.886 14.2H287.546C288.306 14.2 288.926 14.36 289.406 14.68C289.926 15 290.406 15.54 290.846 16.3L296.246 26.08C296.326 26.24 296.386 26.4 296.426 26.56C296.506 26.72 296.626 26.8 296.786 26.8H297.326C297.486 26.8 297.586 26.72 297.626 26.56C297.706 26.4 297.786 26.24 297.866 26.08L303.206 16.3C303.646 15.54 304.106 15 304.586 14.68C305.106 14.36 305.746 14.2 306.506 14.2H316.226C317.186 14.2 317.886 14.42 318.326 14.86C318.766 15.3 318.986 16 318.986 16.96V55.84C318.986 56.8 318.766 57.5 318.326 57.94C317.886 58.38 317.186 58.6 316.226 58.6H306.986C305.986 58.6 305.266 58.38 304.826 57.94C304.426 57.5 304.226 56.8 304.226 55.84V37.12L301.826 41.56C301.426 42.32 300.926 42.88 300.326 43.24C299.726 43.6 298.986 43.78 298.106 43.78H295.706C294.826 43.78 294.086 43.6 293.486 43.24C292.886 42.88 292.386 42.32 291.986 41.56L289.586 37.12V55.84C289.586 56.8 289.366 57.5 288.926 57.94C288.486 58.38 287.786 58.6 286.826 58.6ZM338.824 58.6C337.824 58.6 337.104 58.38 336.664 57.94C336.264 57.5 336.064 56.8 336.064 55.84V48.34L327.004 36.22C326.044 34.94 325.404 33.82 325.084 32.86C324.764 31.9 324.604 30.44 324.604 28.48V16.96C324.604 16 324.824 15.3 325.264 14.86C325.704 14.42 326.404 14.2 327.364 14.2H336.604C337.564 14.2 338.264 14.42 338.704 14.86C339.144 15.3 339.364 16 339.364 16.96V26.8C339.364 27.16 339.384 27.52 339.424 27.88C339.464 28.24 339.584 28.62 339.784 29.02L342.604 33.34C342.724 33.58 342.844 33.76 342.964 33.88C343.124 34 343.304 34.06 343.504 34.06H344.104C344.304 34.06 344.464 34 344.584 33.88C344.744 33.76 344.904 33.58 345.064 33.34L347.824 29.02C348.024 28.62 348.144 28.24 348.184 27.88C348.224 27.52 348.244 27.16 348.244 26.8V16.96C348.244 16 348.464 15.3 348.904 14.86C349.344 14.42 350.044 14.2 351.004 14.2H359.944C360.904 14.2 361.604 14.42 362.044 14.86C362.484 15.3 362.704 16 362.704 16.96V28.48C362.704 30.44 362.544 31.9 362.224 32.86C361.904 33.82 361.264 34.94 360.304 36.22L351.304 48.4V55.84C351.304 56.8 351.084 57.5 350.644 57.94C350.204 58.38 349.504 58.6 348.544 58.6H338.824ZM348.544 58C349.304 58 349.844 57.84 350.164 57.52C350.524 57.16 350.704 56.6 350.704 55.84V48.22L359.824 35.86C360.704 34.62 361.304 33.54 361.624 32.62C361.944 31.7 362.104 30.32 362.104 28.48V16.96C362.104 16.2 361.924 15.66 361.564 15.34C361.244 14.98 360.704 14.8 359.944 14.8H351.004C350.244 14.8 349.684 14.98 349.324 15.34C349.004 15.66 348.844 16.2 348.844 16.96V26.8C348.844 27.2 348.824 27.62 348.784 28.06C348.744 28.5 348.584 28.92 348.304 29.32L345.544 33.64C345.344 34 345.124 34.26 344.884 34.42C344.684 34.58 344.424 34.66 344.104 34.66H343.504C343.184 34.66 342.904 34.58 342.664 34.42C342.464 34.26 342.264 34 342.064 33.64L339.304 29.32C339.024 28.92 338.864 28.5 338.824 28.06C338.784 27.62 338.764 27.2 338.764 26.8V16.96C338.764 16.2 338.584 15.66 338.224 15.34C337.904 14.98 337.364 14.8 336.604 14.8H327.364C326.604 14.8 326.044 14.98 325.684 15.34C325.364 15.66 325.204 16.2 325.204 16.96V28.48C325.204 30.32 325.344 31.7 325.624 32.62C325.944 33.54 326.564 34.62 327.484 35.86L336.664 48.16V55.84C336.664 56.6 336.824 57.16 337.144 57.52C337.504 57.84 338.064 58 338.824 58H348.544ZM344.404 42.34H343.984V52.6H343.384V42.34H342.784C341.904 42.34 341.104 42.14 340.384 41.74C339.704 41.34 339.044 40.7 338.404 39.82L332.584 31.72C332.144 31.12 331.884 30.42 331.804 29.62C331.724 28.82 331.684 27.98 331.684 27.1V20.2H332.284V27.1C332.284 27.94 332.324 28.74 332.404 29.5C332.484 30.22 332.724 30.88 333.124 31.48L338.944 39.58C339.464 40.38 340.064 40.94 340.744 41.26C341.424 41.58 342.104 41.74 342.784 41.74H344.404C345.164 41.74 345.844 41.58 346.444 41.26C347.084 40.9 347.704 40.34 348.304 39.58L354.304 31.48C354.704 30.96 354.944 30.32 355.024 29.56C355.104 28.76 355.144 27.94 355.144 27.1V20.2H355.744V27.1C355.744 27.98 355.704 28.82 355.624 29.62C355.584 30.38 355.324 31.08 354.844 31.72L348.844 39.82C348.204 40.7 347.524 41.34 346.804 41.74C346.124 42.14 345.324 42.34 344.404 42.34Z" fill="#2A5534"/>
<path d="M28.4629 83.0801C28.4629 85.069 26.9014 86.0635 23.7783 86.0635C22.5342 86.0635 20.9854 85.6868 19.1318 84.9336L19.5127 84.0068C21.3493 84.7262 22.7712 85.0859 23.7783 85.0859C24.904 85.0859 25.7376 84.9801 26.2793 84.7686C27.0326 84.4723 27.4092 83.9095 27.4092 83.0801C27.4092 82.4199 27.0918 81.874 26.457 81.4424C26.347 81.3577 26.127 81.2308 25.7969 81.0615C25.4668 80.8923 25.0098 80.6807 24.4258 80.4268L21.3662 79.0049C20.6468 78.6663 20.1136 78.3151 19.7666 77.9512C19.318 77.4603 19.0938 76.8424 19.0938 76.0977C19.0938 74.1003 20.3083 73.1016 22.7373 73.1016C24.1592 73.1016 25.6445 73.4993 27.1934 74.2949L26.7109 75.1455C24.612 74.4515 23.2874 74.1045 22.7373 74.1045C21.0023 74.1045 20.1348 74.7689 20.1348 76.0977C20.1348 76.7409 20.4521 77.2783 21.0869 77.71C21.1462 77.7607 21.3451 77.8665 21.6836 78.0273C22.0221 78.1882 22.5003 78.4082 23.1182 78.6875C23.3551 78.7975 23.6429 78.9287 23.9814 79.0811C24.3285 79.2334 24.7347 79.4154 25.2002 79.627C26.2074 80.0924 26.9141 80.4775 27.3203 80.7822C28.082 81.3747 28.4629 82.1406 28.4629 83.0801ZM49.0547 81.582C49.0547 82.8431 48.6019 83.9095 47.6963 84.7812C46.7738 85.6361 45.665 86.0635 44.3701 86.0635C43.0667 86.0635 41.958 85.6361 41.0439 84.7812C40.1383 83.9095 39.6855 82.8431 39.6855 81.582V77.5957C39.6855 76.3431 40.1383 75.2809 41.0439 74.4092C41.958 73.5374 43.0667 73.1016 44.3701 73.1016C45.6735 73.1016 46.778 73.5374 47.6836 74.4092C48.5977 75.2809 49.0547 76.3431 49.0547 77.5957V81.582ZM48.001 81.582V77.5957C48.001 76.6309 47.6455 75.8057 46.9346 75.1201C46.2406 74.443 45.3857 74.1045 44.3701 74.1045C43.3545 74.1045 42.4912 74.4473 41.7803 75.1328C41.0778 75.8099 40.7266 76.6309 40.7266 77.5957V81.582C40.7266 82.5553 41.0778 83.3848 41.7803 84.0703C42.4912 84.7474 43.3545 85.0859 44.3701 85.0859C45.3857 85.0859 46.2406 84.7474 46.9346 84.0703C47.6455 83.3848 48.001 82.5553 48.001 81.582ZM66.3203 86.0635C65.3724 86.0635 64.6445 85.8265 64.1367 85.3525C63.6374 84.8701 63.3877 84.2819 63.3877 83.5879V67.2998H64.4414V83.5879C64.4414 84.0026 64.5895 84.3581 64.8857 84.6543C65.1904 84.9421 65.6686 85.0859 66.3203 85.0859V86.0635ZM90.2383 86.0635H85.0332C83.8737 86.0635 82.8877 85.6826 82.0752 84.9209C81.2712 84.1507 80.8691 83.207 80.8691 82.0898V73.3047H81.9102V82.0898C81.9102 82.9193 82.2106 83.626 82.8115 84.21C83.4209 84.7939 84.1615 85.0859 85.0332 85.0859H89.1846V73.3047H90.2383V86.0635ZM109.573 86.0635H106.666C106.59 86.0635 106.518 86.0635 106.45 86.0635C106.374 86.0635 106.404 86.0762 106.539 86.1016L105.536 89.9863L104.521 89.7324L105.498 85.9365C104.745 85.8096 104.059 85.3737 103.441 84.6289C102.815 83.8841 102.502 83.0378 102.502 82.0898V77.1006C102.502 75.9834 102.904 75.0397 103.708 74.2695C104.521 73.4909 105.507 73.1016 106.666 73.1016H109.573V74.1045H106.666C105.794 74.1045 105.054 74.3965 104.444 74.9805C103.843 75.5645 103.543 76.2712 103.543 77.1006V82.0898C103.543 82.9193 103.843 83.626 104.444 84.21C105.054 84.7939 105.794 85.0859 106.666 85.0859H109.573V86.0635ZM131.498 66.665C131.456 66.9359 131.388 67.1221 131.295 67.2236C130.872 67.8245 130.148 68.125 129.124 68.125C128.388 68.125 127.567 67.7738 126.661 67.0713C125.756 66.3688 125.129 66.0176 124.782 66.0176C124.164 66.0176 123.492 66.3773 122.764 67.0967L122.002 66.4238C122.882 65.4844 123.809 65.0146 124.782 65.0146C125.392 65.0146 126.174 65.387 127.131 66.1318C127.977 66.7835 128.642 67.1094 129.124 67.1094C129.852 67.1094 130.339 66.8512 130.584 66.335L131.498 66.665ZM131.422 81.582C131.422 82.8431 130.969 83.9095 130.063 84.7812C129.141 85.6361 128.032 86.0635 126.737 86.0635C125.434 86.0635 124.329 85.6361 123.424 84.7812C122.51 83.9095 122.053 82.8431 122.053 81.582V77.5957C122.053 76.3431 122.506 75.2809 123.411 74.4092C124.325 73.5374 125.434 73.1016 126.737 73.1016C128.041 73.1016 129.145 73.5374 130.051 74.4092C130.965 75.2809 131.422 76.3431 131.422 77.5957V81.582ZM130.368 81.582V77.5957C130.368 76.6309 130.013 75.8057 129.302 75.1201C128.608 74.443 127.753 74.1045 126.737 74.1045C125.722 74.1045 124.858 74.4473 124.147 75.1328C123.445 75.8099 123.094 76.6309 123.094 77.5957V81.582C123.094 82.5553 123.445 83.3848 124.147 84.0703C124.858 84.7474 125.722 85.0859 126.737 85.0859C127.753 85.0859 128.608 84.7474 129.302 84.0703C130.013 83.3848 130.368 82.5553 130.368 81.582ZM152.014 80.0967H143.686V81.582C143.686 83.0124 143.969 83.9772 144.536 84.4766C145.002 84.8828 145.827 85.0859 147.012 85.0859H151.798V86.0635H147.012C145.539 86.0635 144.477 85.7842 143.825 85.2256C143.038 84.5485 142.645 83.334 142.645 81.582V77.5957C142.645 76.3431 143.097 75.2809 144.003 74.4092C144.917 73.5374 146.026 73.1016 147.329 73.1016C148.632 73.1016 149.737 73.5374 150.643 74.4092C151.557 75.2809 152.014 76.3431 152.014 77.5957V80.0967ZM150.96 79.0938V77.5957C150.96 76.6309 150.604 75.8057 149.894 75.1201C149.2 74.443 148.345 74.1045 147.329 74.1045C146.313 74.1045 145.45 74.4473 144.739 75.1328C144.037 75.8099 143.686 76.6309 143.686 77.5957V79.0938H150.96ZM172.605 83.0801C172.605 85.069 171.044 86.0635 167.921 86.0635C166.677 86.0635 165.128 85.6868 163.274 84.9336L163.655 84.0068C165.492 84.7262 166.914 85.0859 167.921 85.0859C169.047 85.0859 169.88 84.9801 170.422 84.7686C171.175 84.4723 171.552 83.9095 171.552 83.0801C171.552 82.4199 171.234 81.874 170.6 81.4424C170.49 81.3577 170.27 81.2308 169.939 81.0615C169.609 80.8923 169.152 80.6807 168.568 80.4268L165.509 79.0049C164.789 78.6663 164.256 78.3151 163.909 77.9512C163.461 77.4603 163.236 76.8424 163.236 76.0977C163.236 74.1003 164.451 73.1016 166.88 73.1016C168.302 73.1016 169.787 73.4993 171.336 74.2949L170.854 75.1455C168.755 74.4515 167.43 74.1045 166.88 74.1045C165.145 74.1045 164.277 74.7689 164.277 76.0977C164.277 76.7409 164.595 77.2783 165.229 77.71C165.289 77.7607 165.488 77.8665 165.826 78.0273C166.165 78.1882 166.643 78.4082 167.261 78.6875C167.498 78.7975 167.785 78.9287 168.124 79.0811C168.471 79.2334 168.877 79.4154 169.343 79.627C170.35 80.0924 171.057 80.4775 171.463 80.7822C172.225 81.3747 172.605 82.1406 172.605 83.0801ZM213.789 86.0635H208.584C207.424 86.0635 206.438 85.6826 205.626 84.9209C204.822 84.1507 204.42 83.207 204.42 82.0898V77.1006C204.42 75.9834 204.822 75.0397 205.626 74.2695C206.438 73.4909 207.424 73.1016 208.584 73.1016H212.735V67.2998H213.789V86.0635ZM212.735 85.0859V74.1045H208.584C207.712 74.1045 206.972 74.3965 206.362 74.9805C205.761 75.5645 205.461 76.2712 205.461 77.1006V82.0898C205.461 82.9193 205.761 83.626 206.362 84.21C206.972 84.7939 207.712 85.0859 208.584 85.0859H212.735ZM230.217 68.9121H229.163V67.2998H230.217V68.9121ZM230.217 85.8857H229.163V73.3047H230.217V85.8857ZM254.973 87.5615C254.973 90.5576 253.322 92.0557 250.021 92.0557H246.848V91.0527H250.021C252.62 91.0527 253.919 89.889 253.919 87.5615V86.0635H249.768C248.608 86.0635 247.622 85.6826 246.81 84.9209C246.006 84.1507 245.604 83.207 245.604 82.0898V77.1006C245.604 75.9834 246.006 75.0397 246.81 74.2695C247.622 73.4909 248.608 73.1016 249.768 73.1016H254.973V87.5615ZM253.919 85.0859V74.1045H249.768C248.896 74.1045 248.155 74.3965 247.546 74.9805C246.945 75.5645 246.645 76.2712 246.645 77.1006V82.0898C246.645 82.9193 246.945 83.626 247.546 84.21C248.155 84.7939 248.896 85.0859 249.768 85.0859H253.919ZM271.4 68.9121H270.347V67.2998H271.4V68.9121ZM271.4 85.8857H270.347V73.3047H271.4V85.8857ZM294.899 74.1045H290.951V85.8857H289.897V74.1045H288.031V73.1016H289.897V67.2998H290.951V73.1016H294.899V74.1045ZM316.748 86.0635H311.327C310.506 86.0635 309.778 85.9069 309.144 85.5938C307.967 85.0098 307.379 84.0068 307.379 82.585C307.379 81.1715 307.942 80.1729 309.067 79.5889C309.719 79.2588 310.472 79.0938 311.327 79.0938H315.694V77.2275C315.694 76.0934 315.263 75.2555 314.399 74.7139C313.756 74.3076 312.978 74.1045 312.063 74.1045H308.623V73.1016H312.063C313.172 73.1016 314.146 73.3597 314.983 73.876C316.16 74.6038 316.748 75.721 316.748 77.2275V86.0635ZM315.694 85.0859V80.0967H311.327C309.389 80.0967 308.42 80.9261 308.42 82.585C308.42 83.5921 308.822 84.2988 309.626 84.7051C310.117 84.959 310.684 85.0859 311.327 85.0859H315.694ZM333.176 68.9121H332.122V67.2998H333.176V68.9121ZM333.176 85.8857H332.122V73.3047H333.176V85.8857ZM357.932 83.0801C357.932 85.069 356.37 86.0635 353.247 86.0635C352.003 86.0635 350.454 85.6868 348.601 84.9336L348.981 84.0068C350.818 84.7262 352.24 85.0859 353.247 85.0859C354.373 85.0859 355.206 84.9801 355.748 84.7686C356.501 84.4723 356.878 83.9095 356.878 83.0801C356.878 82.4199 356.561 81.874 355.926 81.4424C355.816 81.3577 355.596 81.2308 355.266 81.0615C354.936 80.8923 354.479 80.6807 353.895 80.4268L350.835 79.0049C350.116 78.6663 349.582 78.3151 349.235 77.9512C348.787 77.4603 348.562 76.8424 348.562 76.0977C348.562 74.1003 349.777 73.1016 352.206 73.1016C353.628 73.1016 355.113 73.4993 356.662 74.2949L356.18 75.1455C354.081 74.4515 352.756 74.1045 352.206 74.1045C350.471 74.1045 349.604 74.7689 349.604 76.0977C349.604 76.7409 349.921 77.2783 350.556 77.71C350.615 77.7607 350.814 77.8665 351.152 78.0273C351.491 78.1882 351.969 78.4082 352.587 78.6875C352.824 78.7975 353.112 78.9287 353.45 79.0811C353.797 79.2334 354.203 79.4154 354.669 79.627C355.676 80.0924 356.383 80.4775 356.789 80.7822C357.551 81.3747 357.932 82.1406 357.932 83.0801Z" fill="#6BAF7A"/>
</g>
<defs>
<clipPath id="clip0_4_2">
<rect width="377" height="98" fill="white"/>
</clipPath>
</defs>
</svg>
